<svg width="88" height="66" viewBox="0 0 88 66" fill="none" xmlns="http://www.w3.org/2000/svg">
<path d="M0 13C0 11.8954 0.895431 11 2 11H12C13.1046 11 14 11.8954 14 13V66H0V13Z" fill="#01D601"/>
<path d="M28 2C28 0.895429 28.8954 0 30 0H41C42.1046 0 43 0.895431 43 2V66H28V2Z" fill="#01D601"/>
<path d="M58 28C58 26.8954 58.8954 26 60 26H71C72.1046 26 73 26.8954 73 28V66H58V28Z" fill="#01D601"/>
<path d="M14 21C14 19.8954 14.8954 19 16 19H26C27.1046 19 28 19.8954 28 21V66H14V21Z" fill="#01A101"/>
<path d="M43 26C43 24.8954 43.8954 24 45 24H56C57.1046 24 58 24.8954 58 26V66H43V26Z" fill="#01A101"/>
<path d="M73 19C73 17.8954 73.8954 17 75 17H86C87.1046 17 88 17.8954 88 19V66H73V19Z" fill="#01A101"/>
</svg>
