<svg width="36" height="36" viewBox="0 0 36 36" fill="none" xmlns="http://www.w3.org/2000/svg">
<g id="game-icons:boxing-glove-surprise">
<path id="Vector" d="M24.0328 1.21643C22.746 1.24596 21.2554 1.64323 20.2992 2.22471C19.0054 3.02838 18.0421 4.2701 17.5992 5.85213C19.3499 6.56088 21.2343 8.15627 23.196 10.8281C24.1523 12.136 24.6304 13.5141 24.6937 14.7446C24.5742 16.1016 24.3281 17.3391 23.3015 17.9719C26.2476 19.786 29.4398 19.6031 31.732 18.225C33.3492 17.2547 34.5163 15.6797 34.8468 13.711C35.1773 11.7422 34.671 9.34455 32.7937 6.6994C30.0445 2.82729 26.8171 1.2537 24.0328 1.21643ZM15.5671 6.72823C14.6742 6.71909 13.9851 7.10862 13.4296 7.79768C11.8898 9.71018 11.7984 14.4352 15.0749 19.2938L13.9851 20.0321C12.7828 18.2531 11.9742 16.4672 11.5101 14.7867C10.4484 15.4688 9.78744 16.3125 9.78041 17.3039C9.76635 18.8438 10.5046 20.5946 11.6929 22.0571C12.8882 23.5196 14.5195 24.6727 16.1507 25.1016C16.9734 25.3196 17.6062 25.1367 18.2179 24.6586C18.5132 24.4336 18.7874 24.1313 19.0476 23.7797C18.3656 23.625 17.6765 23.386 17.114 23.0063L17.8101 21.9797C20.5453 23.5336 23.2734 22.4157 26.0015 20.4047C24.4828 20.1024 22.957 19.4274 21.5367 18.3235C21.1007 18.2742 20.6507 18.1406 20.1937 17.9227C18.8999 17.311 17.4867 16.0524 15.9398 13.95L17.0015 13.1696C18.464 15.1664 19.7648 16.2633 20.7562 16.7344C21.7476 17.2055 22.3312 17.093 22.739 16.7625C23.1468 16.4391 23.4281 15.75 23.3788 14.8149C23.3367 13.8727 22.9499 12.7266 22.1343 11.6086C20.0882 8.81721 18.1898 7.38987 16.7132 6.92721C16.3265 6.82526 15.9187 6.73456 15.5671 6.72823ZM8.62729 20.5313L7.39682 20.9883C8.26869 23.3789 11.039 25.2141 13.9499 25.6289C12.1007 24.1805 9.49213 22.6266 8.62729 20.5313ZM6.07424 23.0907L4.84025 23.5406C5.80494 26.1703 9.05619 28.1391 12.2765 28.2656L12.3328 26.9508C9.63978 26.8453 6.76049 24.961 6.07424 23.0907ZM3.51908 25.643L2.2851 26.093C3.24979 28.7297 6.50104 30.6914 9.72416 30.825L9.78041 29.5102C7.40385 28.9828 4.35932 27.6961 3.51908 25.643ZM1.43994 29.0883V31.0571C2.92705 32.4 5.04627 33.293 7.17182 33.3774L7.22104 32.0625C5.0533 31.6477 2.62189 30.6844 1.43994 29.0883ZM1.43994 33.7571V34.7133H4.83744C3.59432 34.5657 2.39197 34.2492 1.43994 33.7571Z" fill="url(#paint0_linear_1_1139)"/>
</g>
<defs>
<linearGradient id="paint0_linear_1_1139" x1="18.1904" y1="1.21643" x2="18.1904" y2="34.7133" gradientUnits="userSpaceOnUse">
<stop stop-color="#02F102"/>
</linearGradient>
</defs>
</svg>
