<svg width="36" height="36" viewBox="0 0 36 36" fill="none" xmlns="http://www.w3.org/2000/svg">
<g id="hugeicons:equipment-gym-03">
<path id="Vector" d="M27 4.5V12M9 4.5V12M30.75 6V8.25M30.75 8.25V10.5M30.75 8.25H33M5.25 6V8.25M5.25 8.25V10.5M5.25 8.25H3M27 8.25H9M13.5 12V24M22.5 12V24M24 28.5V31.5M12 28.5V31.5M10.9155 28.5H25.086C26.9415 28.5 27.87 28.5 28.254 28.0455C29.124 27.0165 27.456 25.6545 26.847 24.969C26.1615 24.195 25.659 24 24.645 24H11.355C10.341 24 9.84 24.195 9.153 24.969C8.544 25.6545 6.876 27.0165 7.746 28.0455C8.13 28.5 9.06 28.5 10.9155 28.5Z" stroke="#02F102" stroke-width="2.25" stroke-linecap="round" stroke-linejoin="round"/>
</g>
</svg>
