<svg width="34" height="34" viewBox="0 0 34 34" fill="none" xmlns="http://www.w3.org/2000/svg">
<g id="map-pin">
<path id="Vector" d="M29.75 14.1666C29.75 24.0833 17 32.5833 17 32.5833C17 32.5833 4.25 24.0833 4.25 14.1666C4.25 10.7851 5.5933 7.5421 7.98439 5.15101C10.3755 2.75993 13.6185 1.41663 17 1.41663C20.3815 1.41663 23.6245 2.75993 26.0156 5.15101C28.4067 7.5421 29.75 10.7851 29.75 14.1666Z" stroke="#02F102" stroke-width="2" stroke-linecap="round" stroke-linejoin="round"/>
<path id="Vector_2" d="M17 18.4166C19.3472 18.4166 21.25 16.5138 21.25 14.1666C21.25 11.8194 19.3472 9.91663 17 9.91663C14.6528 9.91663 12.75 11.8194 12.75 14.1666C12.75 16.5138 14.6528 18.4166 17 18.4166Z" stroke="#02F102" stroke-width="2" stroke-linecap="round" stroke-linejoin="round"/>
</g>
</svg>
