<svg width="36" height="36" viewBox="0 0 36 36" fill="none" xmlns="http://www.w3.org/2000/svg">
<g id="material-symbols-light:sports-gymnastics-rounded">
<path id="Vector" d="M18.705 31.488L18.4335 17.625L11.0775 15.75H2.13447C1.92147 15.75 1.74347 15.678 1.60047 15.534C1.45747 15.39 1.38547 15.2115 1.38447 14.9985C1.38347 14.7855 1.45547 14.6075 1.60047 14.4645C1.74547 14.3215 1.92347 14.25 2.13447 14.25H10.7295L21.693 6.52802C21.863 6.41802 22.035 6.37852 22.209 6.40952C22.383 6.44052 22.5395 6.53052 22.6785 6.67952C22.8185 6.85352 22.8765 7.04202 22.8525 7.24502C22.8285 7.44802 22.7315 7.61802 22.5615 7.75502L16.1475 12.318L21.663 13.6155L32.043 7.25552C32.183 7.17552 32.335 7.14452 32.499 7.16252C32.664 7.17952 32.8165 7.27052 32.9565 7.43552C33.0965 7.58852 33.1565 7.76252 33.1365 7.95752C33.1145 8.15252 33.018 8.30752 32.847 8.42252L21.4035 17.106L20.325 31.518C20.3 31.725 20.2125 31.899 20.0625 32.04C19.9125 32.181 19.7195 32.251 19.4835 32.25C19.2755 32.25 19.097 32.1765 18.948 32.0295C18.799 31.8825 18.7175 31.7025 18.7035 31.4895M9.28797 11.5395C8.58997 11.5395 7.99247 11.2905 7.49547 10.7925C6.99847 10.2955 6.74997 9.69802 6.74997 9.00002C6.74997 8.30202 6.99847 7.70452 7.49547 7.20752C7.99247 6.71052 8.58997 6.46202 9.28797 6.46202C9.98597 6.46202 10.5835 6.71052 11.0805 7.20752C11.5775 7.70452 11.826 8.30202 11.826 9.00002C11.826 9.69802 11.5775 10.2955 11.0805 10.7925C10.5835 11.2895 9.98597 11.5395 9.28797 11.5395Z" fill="url(#paint0_linear_1_1131)"/>
</g>
<defs>
<linearGradient id="paint0_linear_1_1131" x1="17.2623" y1="6.39929" x2="17.2623" y2="32.25" gradientUnits="userSpaceOnUse">
<stop stop-color="#02F102"/>
</linearGradient>
</defs>
</svg>
