<svg width="34" height="34" viewBox="0 0 34 34" fill="none" xmlns="http://www.w3.org/2000/svg">
<g id="phone-call">
<path id="Vector" d="M21.3209 7.08329C22.7047 7.35326 23.9763 8.02999 24.9732 9.02687C25.9701 10.0237 26.6468 11.2954 26.9168 12.6791M21.3209 1.41663C24.1958 1.73599 26.8765 3.02337 28.9231 5.06739C30.9697 7.1114 32.2605 9.79056 32.5834 12.665M31.1668 23.97V28.22C31.1684 28.6145 31.0876 29.005 30.9295 29.3665C30.7714 29.728 30.5396 30.0525 30.2489 30.3193C29.9582 30.586 29.6149 30.7891 29.2412 30.9155C28.8674 31.0419 28.4714 31.0888 28.0784 31.0533C23.7191 30.5796 19.5317 29.09 15.8526 26.7041C12.4297 24.5291 9.52767 21.627 7.35261 18.2041C4.95841 14.5083 3.46845 10.3005 3.00344 5.92163C2.96804 5.52987 3.0146 5.13504 3.14015 4.76226C3.2657 4.38948 3.4675 4.04694 3.73269 3.75642C3.99789 3.46591 4.32067 3.2338 4.68048 3.07487C5.04029 2.91593 5.42926 2.83366 5.82261 2.83329H10.0726C10.7601 2.82653 11.4266 3.06999 11.9479 3.5183C12.4692 3.96661 12.8097 4.58918 12.9059 5.26996C13.0853 6.63005 13.418 7.96549 13.8976 9.25079C14.0882 9.75785 14.1295 10.3089 14.0165 10.8387C13.9035 11.3685 13.641 11.8548 13.2601 12.24L11.4609 14.0391C13.4776 17.5858 16.4143 20.5224 19.9609 22.5391L21.7601 20.74C22.1453 20.3591 22.6316 20.0966 23.1614 19.9836C23.6911 19.8706 24.2422 19.9119 24.7493 20.1025C26.0346 20.5821 27.37 20.9147 28.7301 21.0941C29.4183 21.1912 30.0468 21.5378 30.496 22.0681C30.9453 22.5983 31.184 23.2752 31.1668 23.97Z" stroke="#02F102" stroke-width="2" stroke-linecap="round" stroke-linejoin="round"/>
</g>
</svg>
