<svg width="24" height="24" viewBox="0 0 24 24" fill="none" xmlns="http://www.w3.org/2000/svg">
<g id="solar:cart-outline">
<path id="Vector" fill-rule="evenodd" clip-rule="evenodd" d="M8.41798 3.25C8.69798 2.66 9.30098 2.25 9.99998 2.25H14C14.698 2.25 15.301 2.66 15.582 3.25C16.265 3.256 16.798 3.287 17.274 3.473C17.8422 3.69527 18.3364 4.07301 18.7 4.563C19.067 5.056 19.239 5.69 19.476 6.561L19.513 6.697L20.103 8.864C20.4964 9.06248 20.8412 9.34518 21.113 9.692C21.735 10.489 21.845 11.438 21.735 12.526C21.627 13.582 21.295 14.912 20.879 16.577L20.852 16.682C20.589 17.735 20.375 18.59 20.122 19.257C19.856 19.953 19.52 20.523 18.965 20.956C18.411 21.389 17.776 21.576 17.037 21.666C16.328 21.75 15.447 21.75 14.362 21.75H9.63798C8.55298 21.75 7.67098 21.75 6.96298 21.665C6.22298 21.577 5.58898 21.389 5.03398 20.955C4.47998 20.523 4.14398 19.953 3.87798 19.257C3.62398 18.59 3.41098 17.735 3.14798 16.682L3.12098 16.577C2.70498 14.912 2.37198 13.582 2.26498 12.527C2.15498 11.437 2.26498 10.489 2.88598 9.692C3.16898 9.33 3.50798 9.062 3.89598 8.864L4.48598 6.697L4.52398 6.561C4.76098 5.69 4.93298 5.056 5.29998 4.562C5.6637 4.07238 6.15787 3.695 6.72598 3.473C7.20198 3.287 7.73398 3.255 8.41798 3.25ZM8.41898 4.753C7.75698 4.76 7.49198 4.785 7.27198 4.871C6.96594 4.99068 6.69979 5.19411 6.50398 5.458C6.32798 5.695 6.22398 6.026 5.93398 7.093L5.57998 8.389C6.61798 8.25 7.95798 8.25 9.62198 8.25H14.377C16.042 8.25 17.382 8.25 18.419 8.389L18.066 7.092C17.775 6.025 17.672 5.694 17.496 5.457C17.3002 5.19311 17.034 4.98968 16.728 4.87C16.508 4.784 16.242 4.759 15.58 4.752C15.4378 5.05066 15.214 5.30293 14.9343 5.47956C14.6547 5.6562 14.3307 5.74996 14 5.75H9.99998C9.66922 5.74996 9.34525 5.6562 9.06561 5.47956C8.78596 5.30293 8.56211 5.05066 8.41998 4.752M9.99998 3.75C9.93367 3.75 9.87008 3.77634 9.8232 3.82322C9.77631 3.87011 9.74998 3.9337 9.74998 4C9.74998 4.0663 9.77631 4.12989 9.8232 4.17678C9.87008 4.22366 9.93367 4.25 9.99998 4.25H14C14.0663 4.25 14.1299 4.22366 14.1768 4.17678C14.2236 4.12989 14.25 4.0663 14.25 4C14.25 3.9337 14.2236 3.87011 14.1768 3.82322C14.1299 3.77634 14.0663 3.75 14 3.75H9.99998ZM5.69998 9.886C4.78998 10.018 4.34898 10.258 4.06998 10.616C3.78998 10.973 3.66498 11.458 3.75798 12.374C3.85298 13.31 4.15798 14.534 4.59198 16.274C4.86998 17.382 5.06198 18.15 5.28198 18.724C5.49198 19.278 5.69898 19.571 5.95898 19.774C6.21798 19.976 6.55198 20.105 7.14198 20.176C7.75198 20.249 8.54198 20.25 9.68598 20.25H14.316C15.459 20.25 16.251 20.249 16.86 20.176C17.45 20.106 17.784 19.976 18.043 19.774C18.303 19.571 18.509 19.278 18.721 18.724C18.939 18.15 19.132 17.382 19.409 16.274C19.844 14.534 20.149 13.31 20.243 12.374C20.337 11.458 20.211 10.972 19.932 10.615C19.653 10.258 19.212 10.018 18.301 9.886C17.371 9.752 16.109 9.75 14.316 9.75H9.68598C7.89298 9.75 6.63098 9.752 5.70098 9.886" fill="white"/>
</g>
</svg>
